<?xml version="1.0" encoding="UTF-8"?>
<!DOCTYPE svg PUBLIC "-//W3C//DTD SVG 1.1//EN" "http://www.w3.org/Graphics/SVG/1.1/DTD/svg11.dtd">
<!-- Creator: CorelDRAW -->
<svg xmlns="http://www.w3.org/2000/svg" xml:space="preserve" width="1.10589in" height="1.10506in" version="1.1" style="shape-rendering:geometricPrecision; text-rendering:geometricPrecision; image-rendering:optimizeQuality; fill-rule:evenodd; clip-rule:evenodd"
viewBox="0 0 231.86 231.68"
 xmlns:xlink="http://www.w3.org/1999/xlink"
 xmlns:xodm="http://www.corel.com/coreldraw/odm/2003">
 <defs>
  <style type="text/css">
   <![CDATA[
    .fil0 {fill:#E6E6E6}
   ]]>
  </style>
 </defs>
 <g id="Layer_x0020_1">
  <metadata id="CorelCorpID_0Corel-Layer"/>
  <path class="fil0" d="M20.47 0l160.85 0c11.26,0 20.47,9.21 20.47,20.47l0 94.75c-4.34,-2.15 -8.95,-3.82 -13.77,-4.96l0 -14.36c0,-4.93 -4.03,-8.95 -8.95,-8.95l-156.85 0c-4.92,0 -8.95,4.03 -8.95,8.95l0 39.22c0,4.92 4.03,8.95 8.95,8.95l93.34 0c-2.45,4.86 -4.29,10.08 -5.45,15.55l-87.39 0c-4.92,0 -8.95,4.03 -8.95,8.95l0 39.22c0,4.93 4.03,8.95 8.95,8.95l103.1 0c5.42,5.87 11.93,10.73 19.19,14.27l-124.55 0c-11.26,0 -20.47,-9.21 -20.47,-20.47l0 -190.09c0,-11.26 9.21,-20.47 20.47,-20.47zm1.83 14.27l156.85 0c4.92,0 8.95,4.03 8.95,8.95l0 39.22c0,4.92 -4.03,8.95 -8.95,8.95l-156.85 0c-4.92,0 -8.95,-4.03 -8.95,-8.95l0 -39.22c0,-4.92 4.03,-8.95 8.95,-8.95zm13.79 21.32c4.12,0 7.47,3.24 7.47,7.24 0,4 -3.34,7.24 -7.47,7.24 -4.12,0 -7.47,-3.24 -7.47,-7.24 0,-4 3.34,-7.24 7.47,-7.24zm0 72.68c4.12,0 7.47,3.24 7.47,7.24 0,4 -3.34,7.24 -7.47,7.24 -4.12,0 -7.47,-3.24 -7.47,-7.24 0,-4 3.34,-7.24 7.47,-7.24zm0 72.68c4.12,0 7.47,3.24 7.47,7.24 0,4 -3.34,7.24 -7.47,7.24 -4.12,0 -7.47,-3.24 -7.47,-7.24 0,-4 3.34,-7.24 7.47,-7.24zm137.09 -66.6c32.4,0 58.67,26.27 58.67,58.67 0,32.4 -26.27,58.67 -58.67,58.67 -32.4,0 -58.67,-26.27 -58.67,-58.67 0,-32.4 26.27,-58.67 58.67,-58.67zm35.2 32.41l-61.46 61.46c7.32,5.47 16.41,8.71 26.26,8.71 24.25,0 43.91,-19.66 43.91,-43.91 0,-9.85 -3.24,-18.94 -8.71,-26.26zm-71.07 51.6l61.21 -61.21c-7.16,-5.07 -15.9,-8.05 -25.34,-8.05 -24.25,0 -43.91,19.66 -43.91,43.91 0,9.44 2.98,18.18 8.05,25.34z"/>
 </g>
</svg>
